<svg width="32" height="32" viewBox="0 0 32 32" fill="none" xmlns="http://www.w3.org/2000/svg">
<path d="M8.00008 18.6667H18.6667V16.0001H8.00008V18.6667ZM8.00008 14.6667H24.0001V12.0001H8.00008V14.6667ZM8.00008 10.6667H24.0001V8.00008H8.00008V10.6667ZM2.66675 29.3334V5.33341C2.66675 4.60008 2.92808 3.97208 3.45075 3.44941C3.97253 2.92764 4.60008 2.66675 5.33341 2.66675H26.6667C27.4001 2.66675 28.0281 2.92764 28.5507 3.44941C29.0725 3.97208 29.3334 4.60008 29.3334 5.33341V21.3334C29.3334 22.0667 29.0725 22.6947 28.5507 23.2174C28.0281 23.7392 27.4001 24.0001 26.6667 24.0001H8.00008L2.66675 29.3334Z" fill="#34364A"/>
</svg>
